<svg xmlns="http://www.w3.org/2000/svg" width="191" height="191" aria-hidden="true" class="iconify iconify--emojione-monotone" viewBox="0 0 64 64"><path d="M25.516 3.571c.588 5.918 5.123 11.657 11.735 14.019 6.637 2.459 13.852.932 18.098-3.294a1.28 1.28 0 0 0 .184-1.63 1.47 1.47 0 0 0-1.576-.619c-4.43 1.103-9.737 1.739-14.666-.059-4.934-1.791-8.59-5.691-11.276-9.38a1.4 1.4 0 0 0-.281-.29c-.594-.468-1.454-.419-1.941.142a1.28 1.28 0 0 0-.277 1.111M38.483 60.43c-.588-5.918-5.122-11.657-11.735-14.021-6.636-2.457-13.851-.93-18.097 3.297a1.276 1.276 0 0 0-.184 1.627c.334.519.969.77 1.577.621 4.429-1.103 9.737-1.739 14.666.059 4.933 1.789 8.589 5.689 11.276 9.381a1.4 1.4 0 0 0 .281.289c.594.469 1.453.418 1.939-.141.269-.313.359-.722.277-1.112M60.429 25.517c-5.918.588-11.656 5.122-14.02 11.735-2.458 6.635-.931 13.85 3.295 18.096a1.28 1.28 0 0 0 1.629.184c.518-.334.769-.969.62-1.576-1.103-4.428-1.739-9.736.059-14.666 1.79-4.933 5.688-8.588 9.38-11.275q.158-.117.275-.264l.015-.017c.469-.595.419-1.454-.142-1.941a1.28 1.28 0 0 0-1.111-.276M3.571 38.482c5.918-.588 11.657-5.122 14.02-11.733 2.458-6.636.931-13.852-3.295-18.098a1.28 1.28 0 0 0-1.629-.183c-.517.335-.768.97-.62 1.576 1.103 4.43 1.739 9.738-.059 14.667-1.79 4.933-5.69 8.589-9.38 11.275a1.4 1.4 0 0 0-.275.262l-.015.019c-.468.592-.418 1.454.141 1.938.312.27.719.359 1.112.277"/></svg>